# xmcd
#
# Track frame offsets:
#	150
#	25752
#	46164
#	68623
#	84048
#	106214
#	120643
#	141070
#	160141
#	174226
#	197818
#
# Disc length: 2884 seconds
#
# Revision: 0
# Processed by: cddbd v1.5.1PL0 Copyright (c) Steve Scherf et al.
# Submitted via: dBpowerAMP V4.0
#
DISCID=7d0b420b
DTITLE=Captain Sam Crutchfield - Hooked On Fishin'
DYEAR=1900
DGENRE=Country
TTITLE0=Ain't A Simple Blue Marlin
TTITLE1=Trollin'
TTITLE2=Big Game Fishin'
TTITLE3=Flyin' Fish
TTITLE4=Florida High
TTITLE5=Ugly
TTITLE6=Big ol' Lake
TTITLE7=Just Got Home From Costa Rica
TTITLE8=The Mullet and The Macheret and The Ballyhoo
TTITLE9=Hooked On Fishin'
TTITLE10=Million Dollar Bass
EXTD=
EXTT0=
EXTT1=
EXTT2=
EXTT3=
EXTT4=
EXTT5=
EXTT6=
EXTT7=
EXTT8=
EXTT9=
EXTT10=
PLAYORDER=
